<?xml version="1.0" encoding="utf-8"?>
<!-- Generator: Adobe Illustrator 25.4.1, SVG Export Plug-In . SVG Version: 6.00 Build 0)  -->
<!DOCTYPE svg PUBLIC "-//W3C//DTD SVG 1.1//EN" "http://www.w3.org/Graphics/SVG/1.1/DTD/svg11.dtd" [
	<!ENTITY ns_extend "http://ns.adobe.com/Extensibility/1.0/">
	<!ENTITY ns_ai "http://ns.adobe.com/AdobeIllustrator/10.0/">
	<!ENTITY ns_graphs "http://ns.adobe.com/Graphs/1.0/">
	<!ENTITY ns_vars "http://ns.adobe.com/Variables/1.0/">
	<!ENTITY ns_imrep "http://ns.adobe.com/ImageReplacement/1.0/">
	<!ENTITY ns_sfw "http://ns.adobe.com/SaveForWeb/1.0/">
	<!ENTITY ns_custom "http://ns.adobe.com/GenericCustomNamespace/1.0/">
	<!ENTITY ns_adobe_xpath "http://ns.adobe.com/XPath/1.0/">
]>
<svg version="1.1" id="Layer_1" xmlns:x="&ns_extend;" xmlns:i="&ns_ai;" xmlns:graph="&ns_graphs;"
	 xmlns="http://www.w3.org/2000/svg" xmlns:xlink="http://www.w3.org/1999/xlink" x="0px" y="0px" viewBox="0 0 500 500"
	 style="enable-background:new 0 0 500 500;" xml:space="preserve">
<style type="text/css">
	.st0{fill:url(#SVGID_1_);}
	.st1{fill:url(#SVGID_00000092427355610235257760000016506417158681831314_);}
	.st2{fill:#FFFFFF;}
</style>
<metadata>
	<sfw  xmlns="&ns_sfw;">
		<slices></slices>
		<sliceSourceBounds  bottomLeftOrigin="true" height="483.7" width="489.5" x="9.2" y="7.9"></sliceSourceBounds>
	</sfw>
</metadata>
<g>
	
		<radialGradient id="SVGID_1_" cx="-79.4296" cy="323.1432" r="0.5106" gradientTransform="matrix(3.7211 0 0 3.7211 184.2876 -634.7145)" gradientUnits="userSpaceOnUse">
		<stop  offset="0.132" style="stop-color:#4294E3"/>
		<stop  offset="1" style="stop-color:#8F12FD"/>
	</radialGradient>
	<path class="st0" d="M251.2,8.4c-101,0-130.5,0.1-136.3,0.6c-20.7,1.7-33.6,5-47.7,12c-10.8,5.4-19.4,11.6-27.8,20.3
		c-15.3,15.9-24.7,35.5-28,58.8c-1.6,11.3-2.1,13.6-2.2,71.4c0,19.3,0,44.6,0,78.6c0,100.9,0.1,130.4,0.6,136.2
		c1.7,20.2,4.8,32.9,11.5,46.7c12.8,26.6,37.2,46.5,66,54c10,2.6,21,4,35.1,4.7c6,0.3,67.1,0.4,128.2,0.4s122.2-0.1,128-0.4
		c16.4-0.8,25.9-2,36.4-4.8c29-7.5,53-27.1,66-54.1c6.6-13.5,9.9-26.7,11.4-45.8c0.3-4.2,0.5-70.6,0.5-137
		c0-66.4-0.1-132.7-0.5-136.9c-1.5-19.4-4.9-32.5-11.6-46.3c-5.6-11.3-11.7-19.7-20.7-28.4c-16-15.3-35.6-24.6-58.9-28
		C390,9,387.8,8.5,330,8.4H251.2z"/>
	
		<radialGradient id="SVGID_00000078005137909977070190000002714434232815822723_" cx="480.2257" cy="179.1395" r="65" gradientTransform="matrix(0.6472 3.2326 13.3282 -2.6687 -2764.5583 -1031.0652)" gradientUnits="userSpaceOnUse">
		<stop  offset="0" style="stop-color:#3771C8"/>
		<stop  offset="0.128" style="stop-color:#3771C8"/>
		<stop  offset="1" style="stop-color:#6600FF;stop-opacity:0"/>
	</radialGradient>
	<path style="fill:url(#SVGID_00000078005137909977070190000002714434232815822723_);" d="M256.9,8.4c-101,0-130.5,0.1-136.3,0.6
		C99.9,10.7,87,14,73,21c-10.8,5.4-19.4,11.6-27.8,20.3c-15.3,15.9-24.7,35.5-28,58.8c-1.6,11.3-2.1,13.6-2.2,71.4
		c0,19.3,0,44.6,0,78.6c0,100.9,0.1,130.4,0.6,136.2c1.7,20.2,4.8,32.9,11.5,46.7c12.8,26.6,37.2,46.5,66,54c10,2.6,21,4,35.1,4.7
		c6,0.3,67.1,0.4,128.2,0.4s122.2-0.1,128-0.4c16.4-0.8,25.9-2,36.4-4.8c29-7.5,53-27.1,66-54.1c6.6-13.5,9.9-26.7,11.4-45.8
		c0.3-4.2,0.5-70.6,0.5-137c0-66.4-0.1-132.7-0.5-136.9c-1.5-19.4-4.9-32.5-11.6-46.3c-5.6-11.3-11.7-19.7-20.7-28.4
		c-16-15.3-35.6-24.6-58.9-28c-11.3-1.6-13.6-2.1-71.4-2.2H256.9z"/>
	<g>
		<path class="st2" d="M449.6,329.5C417,406.2,340,461.3,250.2,461.3c-91.8,0-170.3-55.9-201.6-134.9h43.2
			C121.9,393.8,190.8,441,271,441c79.2,0,147.2-46,178-112.1C449.2,329,449.4,329.3,449.6,329.5L449.6,329.5z M450,179.7l-0.8,0.5
			C418.6,113.7,350.3,67.4,271,67.4C190.9,67.4,122,114.5,91.8,182H48.6C79.9,103,158.4,47.1,250.2,47.1
			C340.3,47.1,417.6,102.6,450,179.7L450,179.7z M435,326.4c-28.6,59.8-91.7,101.4-165,101.4c-72.6,0-135.3-42-164.2-101.4h1.2
			c27.3,50.3,82.3,84.8,145.6,84.8s118.3-34.4,145.6-84.8H435z"/>
		<path class="st2" d="M435,182h-36.8c-27.3-50.3-82.3-84.8-145.6-84.8S134.3,131.6,107,182h-1.2c29-59.4,91.6-101.4,164.2-101.4
			C343.3,80.6,406.4,122.2,435,182L435,182z M439.6,191.7l-84.3,120.4c-6.1,8.7-11.7,12.9-17.8,12.9c-6.1,0-11.7-4.2-17.8-12.9
			l-22.9-33.3l-23.5,33.4c-5.6,8.7-11.7,12.9-17.4,12.9c-6.1,0-12.1-4.2-17.8-12.9L181.1,229h36l39.1,58.1l23-34.1l-41.7-61.2h36.9
			l63.8,95.3l64.7-95.3L439.6,191.7L439.6,191.7z M218.1,322.9H126c-23.9,0-43.5-6.2-59.1-19.1c-15.7-12.6-23.5-28.5-23.5-47.6
			c0-19.5,7.8-34.8,23-46.6c15.7-11.9,35.2-17.7,59.5-17.7h66.4l15.2,22.9H126c-15.7,0-28.7,4.2-38.6,12.2
			c-10.4,8-15.2,18.4-15.2,31c0,12.6,4.8,22.6,15.2,30.7c10,7.6,23,11.5,38.6,11.5h76L218.1,322.9z M449.6,331.8
			C417,408.5,340,463.6,250.2,463.6c-91.8,0-170.3-55.9-201.6-134.9h43.2c30.1,67.5,99,114.7,179.2,114.7c79.2,0,147.2-46,178-112.1
			C449.2,331.4,449.4,331.6,449.6,331.8L449.6,331.8z M450,182l-0.8,0.5C418.6,116,350.3,69.7,271,69.7
			c-80.1,0-148.9,47.1-179.2,114.7H48.6c31.3-79,109.8-134.9,201.6-134.9C340.3,49.4,417.6,104.9,450,182L450,182z"/>
		<path class="st2" d="M435,328.7c-28.6,59.8-91.7,101.4-165,101.4c-72.6,0-135.3-42-164.2-101.4h1.2
			c27.3,50.3,82.3,84.8,145.6,84.8s118.3-34.4,145.6-84.8H435z M435,184.3h-36.8c-27.3-50.3-82.3-84.8-145.6-84.8
			S134.3,134,107,184.3h-1.2c29-59.4,91.6-101.4,164.2-101.4C343.3,82.9,406.4,124.5,435,184.3L435,184.3z"/>
	</g>
</g>
</svg>
